<svg width="1949" height="1218" version="1.0" xmlns="http://www.w3.org/2000/svg" xmlns:xlink="http://www.w3.org/1999/xlink" x="0px" y="0px" viewBox="0 0 194.9 121.8" style="enable-background:new 0 0 194.9 121.8;" xml:space="preserve">
  <style type="text/css">
    .st0{fill:white;}
  </style>
  <path class="st0" d="M46.9,0c6.9,0,10.3,3,10.3,10.2V27c0,7.2-3.5,10.2-10.1,10.2H31.5V0H46.9z M44,29.2c1.8,0,2.4-0.8,2.4-3.1V10.8
    c0-2.1-0.6-3-2.4-3h-1.9v21.3H44z M80.1,8.7h-9.5v5h8.2v8.8h-8.2v6h9.8v8.8H60.5V0h19.6V8.7z M102.5,0v8.7h-9.3v5h7.9v8.8h-7.9v14.8
    H83.1V0H102.5z M105,27.4V0h10.4v25.8c0,1.8,0.6,2.8,2.2,2.8c1.6,0,2.2-1,2.2-2.8V0H130v27.4c0,5.8-3.8,10.5-11.7,10.5h-1.7
    C108.1,37.9,105,33.3,105,27.4z M149.6,20.1c-0.2-2.8-0.2-4.1-0.2-7.3V0h8.5v37.2h-9l-5.5-15.7c-0.8-2.2-1.4-4.4-1.8-6
    c0.1,1.8,0.2,4.2,0.2,7.3v14.3h-8.6V0h10l4.4,13.6C148.7,16.5,149.2,18.5,149.6,20.1z M176.8,0c6.9,0,10.3,3,10.3,10.2V27
    c0,7.2-3.5,10.2-10.1,10.2h-15.6V0H176.8z M174,29.2c1.8,0,2.4-0.8,2.4-3.1V10.8c0-2.1-0.6-3-2.4-3h-1.9v21.3H174z M46,68.7v-5.6
    h10.1v6.3c0,5.5-2.9,10.4-11.3,10.4h-1.8c-8.7,0-11.9-4.2-11.9-11.6V52.8c0-7,3-11.4,11.8-11.4h1.8c8.1,0,11.3,3.8,11.3,10v5.2H46
    v-4.5c0-1.5-0.5-2.5-2.1-2.5c-1.6,0-2,1-2,2.5v16.6c0,1.8,0.4,2.7,2,2.7C45.5,71.4,46,70.4,46,68.7z M69.6,70h7.9v9.3H59.1V42h10.6
    V70z M80,79.2V42h10.6v37.2H80z M107.1,79.2l-3-13.6c-1-4.6-1.6-8-2-10.5c0.1,2.7,0.2,6.2,0.2,11v13.1H94V42h11.9l2.2,12.3
    c0.6,3.2,1,5.3,1.1,6.8c0.2-1.4,0.5-3.5,1.1-6.8l2.3-12.3h11.6v37.2h-8.6V66.2c0-4.8,0.1-8.2,0.2-11c-0.5,2.5-1.1,5.9-2.1,10.5
    l-3,13.6H107.1z M135.7,74.4l-0.6,4.9h-9l5.8-37.2h13.8l6.4,37.2h-10l-0.7-4.9H135.7z M140.3,66.7l-0.7-5c-0.5-3.8-0.8-6.8-1-9.2
    c-0.2,2.5-0.5,5.5-1.1,9.2l-0.7,5H140.3z M151,50.5V42h21.7v8.5h-5.9v28.8h-10V50.5H151z M194.7,50.7h-9.5v5h8.2v8.8h-8.2v6h9.8v8.8
    h-19.9V42h19.6V50.7z M46,110.7v-5.6h10.1v6.3c0,5.5-2.9,10.4-11.3,10.4h-1.8c-8.7,0-11.9-4.2-11.9-11.6V94.8c0-7,3-11.4,11.8-11.4
    h1.8c8.1,0,11.3,3.8,11.3,10v5.2H46v-4.5c0-1.5-0.5-2.5-2.1-2.5c-1.6,0-2,1-2,2.5v16.6c0,1.8,0.4,2.7,2,2.7
    C45.5,113.4,46,112.4,46,110.7z M69.7,84v12.7H74V84h10.6v37.2H74V107h-4.3v14.3H59.1V84H69.7z M96,116.4l-0.6,4.9h-9L92.1,84h13.8
    l6.4,37.2h-10l-0.7-4.9H96z M100.6,108.7l-0.7-5c-0.5-3.8-0.8-6.8-1-9.2c-0.2,2.5-0.6,5.5-1.1,9.2l-0.7,5H100.6z M127.1,121.8h-1.8
    c-8.6,0-12.1-4.7-12.1-11.2V94.7c0-7,3.5-11.2,12.1-11.2h1.8c8.3,0,12.1,4.2,12.1,11.2v15.8C139.2,117.2,135.3,121.8,127.1,121.8z
     M126.2,92.1c-1.7,0-2.2,1-2.2,2.8v15.5c0,1.8,0.6,2.7,2.2,2.7c1.5,0,2.2-0.9,2.2-2.7V94.9C128.5,93.2,127.9,92.1,126.2,92.1z
     M141.4,112.6v-4.4h9.8v3.4c0,1.4,0.6,2.2,2.2,2.2c1.5,0,2.2-0.8,2.2-2.5v-0.3c0-2.2-1-3-2.9-4.2l-5-3.2c-3.8-2.4-5.9-5.2-5.9-10v-1
    c0-5.8,3.5-9.2,11.6-9.2h1.4c8.7,0,11.2,3.5,11.2,8.5v3.2h-9.8v-2.2c0-1.5-0.7-2.2-2-2.2c-1.5,0-2.2,0.7-2.2,2.1v0.1
    c0,1.6,0.9,2.3,2.7,3.5l5,3.2c4.4,2.8,6.8,5.4,6.8,10.8v1.1c0,5.7-3.4,10.4-12.2,10.4h-1.4C144.2,121.8,141.4,118,141.4,112.6z
     M10.1,25.7L8.8,37.2H3l1.3-11.5H0l0.6-4.9h4.3l0.6-6.1H1.2l0.5-4.9h4.3L7.2,0H13l-1.1,9.8h3.9L16.9,0h5.9l-1.2,9.8h4.3l-0.5,4.9H21
    l-0.7,6.1h4.4l-0.5,4.9h-4.4l-1.4,11.5h-5.8l1.3-11.5H10.1z M11.4,14.7l-0.7,6.1h3.8l0.7-6.1H11.4z">
  </path>
</svg>
