<?xml version="1.0" encoding="UTF-8" standalone="no"?>
<!-- Created with Inkscape (http://www.inkscape.org/) -->

<svg
   xmlns:dc="http://purl.org/dc/elements/1.1/"
   xmlns:cc="http://creativecommons.org/ns#"
   xmlns:rdf="http://www.w3.org/1999/02/22-rdf-syntax-ns#"
   xmlns:svg="http://www.w3.org/2000/svg"
   xmlns="http://www.w3.org/2000/svg"
   xmlns:sodipodi="http://sodipodi.sourceforge.net/DTD/sodipodi-0.dtd"
   xmlns:inkscape="http://www.inkscape.org/namespaces/inkscape"
   width="269.14261"
   height="37.822609"
   viewBox="0 0 71.210664 10.007232"
   version="1.1"
   id="svg8"
   inkscape:version="0.92.5 (2060ec1f9f, 2020-04-08)"
   sodipodi:docname="defundclimatechaos_long.svg">
  <defs
     id="defs2" />
  <sodipodi:namedview
     id="base"
     pagecolor="#ffffff"
     bordercolor="#666666"
     borderopacity="1.0"
     inkscape:pageopacity="0.0"
     inkscape:pageshadow="2"
     inkscape:zoom="6.2"
     inkscape:cx="155.91218"
     inkscape:cy="20.31616"
     inkscape:document-units="mm"
     inkscape:current-layer="layer1"
     showgrid="false"
     units="px"
     inkscape:window-width="1920"
     inkscape:window-height="1016"
     inkscape:window-x="0"
     inkscape:window-y="27"
     inkscape:window-maximized="1"
     fit-margin-top="0"
     fit-margin-left="0"
     fit-margin-right="0"
     fit-margin-bottom="0" />
  <metadata
     id="metadata5">
    <rdf:RDF>
      <cc:Work
         rdf:about="">
        <dc:format>image/svg+xml</dc:format>
        <dc:type
           rdf:resource="http://purl.org/dc/dcmitype/StillImage" />
        <dc:title />
      </cc:Work>
    </rdf:RDF>
  </metadata>
  <g
     inkscape:label="Layer 1"
     inkscape:groupmode="layer"
     id="layer1"
     transform="translate(-0.04511712,-286.96806)">
    <g
       aria-label="# DEFUND CLIMATE CHAOS"
       style="font-style:normal;font-variant:normal;font-weight:500;font-stretch:normal;font-size:11.30122185px;line-height:1.25;font-family:'Druk Text Web';-inkscape-font-specification:'Druk Text Web, Medium';font-variant-ligatures:normal;font-variant-caps:normal;font-variant-numeric:normal;text-align:start;letter-spacing:0px;word-spacing:0px;writing-mode:lr-tb;text-anchor:start;fill:#000000;fill-opacity:1;stroke:none;stroke-width:0.28253055"
       id="text814">
      <path
         d="m 1.7855053,292.51884 0.065924,-1.47669 H 1.6009187 l -0.065924,1.47669 z M 1.5877339,296.86981 1.745951,293.5077 H 1.4822559 l -0.1582171,3.36211 H 0.34836658 L 0.49339893,293.5077 H 0.04511712 l 0.05273904,-0.98886 h 0.44828181 l 0.0659238,-1.47669 H 0.16377995 l 0.052739,-1.00204 H 0.651616 l 0.13184759,-2.97976 H 1.7855053 l -0.1450323,2.97976 h 0.2636952 l 0.1318475,-2.97976 h 1.0020417 l -0.1450323,2.97976 h 0.435097 l -0.052739,1.00204 H 2.8534708 l -0.065924,1.47669 h 0.4219123 l -0.052739,0.98886 H 2.734808 l -0.1582171,3.36211 z"
         style="font-style:normal;font-variant:normal;font-weight:normal;font-stretch:extra-condensed;font-size:13.18475914px;font-family:'Druk Cond';-inkscape-font-specification:'Druk Cond,  weight=960 Extra-Condensed';font-variant-ligatures:normal;font-variant-caps:normal;font-variant-numeric:normal;font-feature-settings:normal;text-align:start;writing-mode:lr-tb;text-anchor:start;fill:#dd0000;fill-opacity:0.94117647;stroke-width:0.28253055"
         id="path858"
         inkscape:connector-curvature="0" />
      <path
         d="m 4.5411082,296.86981 v -9.80946 h 2.3864414 q 1.2921064,0 1.2921064,1.41077 v 6.90881 q 0,0.75154 -0.3428037,1.12071 -0.3428038,0.36917 -0.9229332,0.36917 z m 1.6349101,-8.46461 v 7.08021 h 0.1582171 q 0.1977714,0 0.1977714,-0.32962 v -6.44734 q 0,-0.30325 -0.1977714,-0.30325 z"
         style="font-style:normal;font-variant:normal;font-weight:normal;font-stretch:extra-condensed;font-size:13.18475914px;font-family:'Druk Cond';-inkscape-font-specification:'Druk Cond,  weight=960 Extra-Condensed';font-variant-ligatures:normal;font-variant-caps:normal;font-variant-numeric:normal;font-feature-settings:normal;text-align:start;writing-mode:lr-tb;text-anchor:start;fill:#dd0000;fill-opacity:0.94117647;stroke-width:0.28253055"
         id="path860"
         inkscape:connector-curvature="0" />
      <path
         d="m 8.4833479,287.06035 h 2.8215381 v 1.50306 h -1.186628 v 2.38645 H 11.1203 v 1.5558 h -1.002042 v 2.83472 h 1.226183 v 1.52943 H 8.4833479 Z"
         style="font-style:normal;font-variant:normal;font-weight:normal;font-stretch:extra-condensed;font-size:13.18475914px;font-family:'Druk Cond';-inkscape-font-specification:'Druk Cond,  weight=960 Extra-Condensed';font-variant-ligatures:normal;font-variant-caps:normal;font-variant-numeric:normal;font-feature-settings:normal;text-align:start;writing-mode:lr-tb;text-anchor:start;fill:#dd0000;fill-opacity:0.94117647;stroke-width:0.28253055"
         id="path862"
         inkscape:connector-curvature="0" />
      <path
         d="m 11.58175,296.86981 v -9.80946 h 2.795169 v 1.50306 H 13.21666 v 2.39963 h 0.962488 l 0.01318,1.54262 H 13.21666 v 4.36415 z"
         style="font-style:normal;font-variant:normal;font-weight:normal;font-stretch:extra-condensed;font-size:13.18475914px;font-family:'Druk Cond';-inkscape-font-specification:'Druk Cond,  weight=960 Extra-Condensed';font-variant-ligatures:normal;font-variant-caps:normal;font-variant-numeric:normal;font-feature-settings:normal;text-align:start;writing-mode:lr-tb;text-anchor:start;fill:#dd0000;fill-opacity:0.94117647;stroke-width:0.28253055"
         id="path864"
         inkscape:connector-curvature="0" />
      <path
         d="m 16.631506,296.97529 h -0.263695 q -0.896564,0 -1.331661,-0.44828 -0.421912,-0.46147 -0.421912,-1.17345 v -8.29321 h 1.714019 v 8.09544 q 0,0.25051 0.171401,0.25051 0.184587,0 0.184587,-0.25051 v -8.09544 h 1.700834 v 8.29321 q 0,0.68561 -0.448282,1.16026 -0.448282,0.46147 -1.305291,0.46147 z"
         style="font-style:normal;font-variant:normal;font-weight:normal;font-stretch:extra-condensed;font-size:13.18475914px;font-family:'Druk Cond';-inkscape-font-specification:'Druk Cond,  weight=960 Extra-Condensed';font-variant-ligatures:normal;font-variant-caps:normal;font-variant-numeric:normal;font-feature-settings:normal;text-align:start;writing-mode:lr-tb;text-anchor:start;fill:#dd0000;fill-opacity:0.94117647;stroke-width:0.28253055"
         id="path866"
         inkscape:connector-curvature="0" />
      <path
         d="m 18.648771,287.06035 h 1.68765 l 0.646053,5.31346 -0.01319,-5.31346 h 1.3844 v 9.80946 h -1.542617 l -0.777901,-5.8804 0.01319,5.8804 h -1.397585 z"
         style="font-style:normal;font-variant:normal;font-weight:normal;font-stretch:extra-condensed;font-size:13.18475914px;font-family:'Druk Cond';-inkscape-font-specification:'Druk Cond,  weight=960 Extra-Condensed';font-variant-ligatures:normal;font-variant-caps:normal;font-variant-numeric:normal;font-feature-settings:normal;text-align:start;writing-mode:lr-tb;text-anchor:start;fill:#dd0000;fill-opacity:0.94117647;stroke-width:0.28253055"
         id="path868"
         inkscape:connector-curvature="0" />
      <path
         d="m 22.617367,296.86981 v -9.80946 h 2.386441 q 1.292107,0 1.292107,1.41077 v 6.90881 q 0,0.75154 -0.342804,1.12071 -0.342804,0.36917 -0.922933,0.36917 z m 1.63491,-8.46461 v 7.08021 h 0.158217 q 0.197771,0 0.197771,-0.32962 v -6.44734 q 0,-0.30325 -0.197771,-0.30325 z"
         style="font-style:normal;font-variant:normal;font-weight:normal;font-stretch:extra-condensed;font-size:13.18475914px;font-family:'Druk Cond';-inkscape-font-specification:'Druk Cond,  weight=960 Extra-Condensed';font-variant-ligatures:normal;font-variant-caps:normal;font-variant-numeric:normal;font-feature-settings:normal;text-align:start;writing-mode:lr-tb;text-anchor:start;fill:#dd0000;fill-opacity:0.94117647;stroke-width:0.28253055"
         id="path870"
         inkscape:connector-curvature="0" />
      <path
         d="m 29.302026,295.24809 q 0,0.27688 0.171402,0.27688 0.171401,0 0.171401,-0.27688 v -2.8611 h 1.634911 v 2.90065 q 0,0.72516 -0.421913,1.19981 -0.408727,0.47466 -1.239367,0.47466 h -0.263695 q -1.766758,0 -1.766758,-1.83269 V 288.748 q 0,-0.81745 0.421912,-1.29211 0.435097,-0.48783 1.331661,-0.48783 h 0.27688 q 0.843825,0 1.252552,0.42191 0.408728,0.42191 0.408728,1.17344 v 2.5974 h -1.634911 v -2.54466 q 0,-0.25051 -0.171401,-0.25051 -0.171402,0 -0.171402,0.25051 z"
         style="font-style:normal;font-variant:normal;font-weight:normal;font-stretch:extra-condensed;font-size:13.18475914px;font-family:'Druk Cond';-inkscape-font-specification:'Druk Cond,  weight=960 Extra-Condensed';font-variant-ligatures:normal;font-variant-caps:normal;font-variant-numeric:normal;font-feature-settings:normal;text-align:start;writing-mode:lr-tb;text-anchor:start;fill:#dd0000;fill-opacity:0.94117647;stroke-width:0.28253055"
         id="path872"
         inkscape:connector-curvature="0" />
      <path
         d="m 31.530247,287.06035 h 1.661279 l 0.01319,8.25366 h 1.054781 l -0.01319,1.5558 h -2.71606 z"
         style="font-style:normal;font-variant:normal;font-weight:normal;font-stretch:extra-condensed;font-size:13.18475914px;font-family:'Druk Cond';-inkscape-font-specification:'Druk Cond,  weight=960 Extra-Condensed';font-variant-ligatures:normal;font-variant-caps:normal;font-variant-numeric:normal;font-feature-settings:normal;text-align:start;writing-mode:lr-tb;text-anchor:start;fill:#dd0000;fill-opacity:0.94117647;stroke-width:0.28253055"
         id="path874"
         inkscape:connector-curvature="0" />
      <path
         d="m 36.158084,287.06035 v 9.80946 H 34.48362 v -9.80946 z"
         style="font-style:normal;font-variant:normal;font-weight:normal;font-stretch:extra-condensed;font-size:13.18475914px;font-family:'Druk Cond';-inkscape-font-specification:'Druk Cond,  weight=960 Extra-Condensed';font-variant-ligatures:normal;font-variant-caps:normal;font-variant-numeric:normal;font-feature-settings:normal;text-align:start;writing-mode:lr-tb;text-anchor:start;fill:#dd0000;fill-opacity:0.94117647;stroke-width:0.28253055"
         id="path876"
         inkscape:connector-curvature="0" />
      <path
         d="m 36.421772,296.86981 v -9.80946 h 1.91179 l 0.290065,4.7597 0.290065,-4.7597 h 1.859051 v 9.80946 h -1.397585 v -5.48486 l -0.487836,5.48486 h -0.593314 l -0.501021,-5.48486 v 5.48486 z"
         style="font-style:normal;font-variant:normal;font-weight:normal;font-stretch:extra-condensed;font-size:13.18475914px;font-family:'Druk Cond';-inkscape-font-specification:'Druk Cond,  weight=960 Extra-Condensed';font-variant-ligatures:normal;font-variant-caps:normal;font-variant-numeric:normal;font-feature-settings:normal;text-align:start;writing-mode:lr-tb;text-anchor:start;fill:#dd0000;fill-opacity:0.94117647;stroke-width:0.28253055"
         id="path878"
         inkscape:connector-curvature="0" />
      <path
         d="m 42.908651,293.66592 -0.197771,-3.73129 -0.197772,3.73129 z m 0.171402,3.20389 -0.09229,-1.76676 h -0.566945 l -0.09229,1.76676 h -1.437139 l 0.817455,-9.80946 h 2.109561 l 0.883379,9.80946 z"
         style="font-style:normal;font-variant:normal;font-weight:normal;font-stretch:extra-condensed;font-size:13.18475914px;font-family:'Druk Cond';-inkscape-font-specification:'Druk Cond,  weight=960 Extra-Condensed';font-variant-ligatures:normal;font-variant-caps:normal;font-variant-numeric:normal;font-feature-settings:normal;text-align:start;writing-mode:lr-tb;text-anchor:start;fill:#dd0000;fill-opacity:0.94117647;stroke-width:0.28253055"
         id="path880"
         inkscape:connector-curvature="0" />
      <path
         d="m 45.070922,296.86981 v -8.3064 h -0.751531 v -1.50306 h 3.151157 v 1.50306 h -0.751531 v 8.3064 z"
         style="font-style:normal;font-variant:normal;font-weight:normal;font-stretch:extra-condensed;font-size:13.18475914px;font-family:'Druk Cond';-inkscape-font-specification:'Druk Cond,  weight=960 Extra-Condensed';font-variant-ligatures:normal;font-variant-caps:normal;font-variant-numeric:normal;font-feature-settings:normal;text-align:start;writing-mode:lr-tb;text-anchor:start;fill:#dd0000;fill-opacity:0.94117647;stroke-width:0.28253055"
         id="path882"
         inkscape:connector-curvature="0" />
      <path
         d="m 47.707859,287.06035 h 2.821539 v 1.50306 h -1.186629 v 2.38645 h 1.002042 v 1.5558 h -1.002042 v 2.83472 h 1.226183 v 1.52943 h -2.861093 z"
         style="font-style:normal;font-variant:normal;font-weight:normal;font-stretch:extra-condensed;font-size:13.18475914px;font-family:'Druk Cond';-inkscape-font-specification:'Druk Cond,  weight=960 Extra-Condensed';font-variant-ligatures:normal;font-variant-caps:normal;font-variant-numeric:normal;font-feature-settings:normal;text-align:start;writing-mode:lr-tb;text-anchor:start;fill:#dd0000;fill-opacity:0.94117647;stroke-width:0.28253055"
         id="path884"
         inkscape:connector-curvature="0" />
      <path
         d="m 53.548682,295.24809 q 0,0.27688 0.171402,0.27688 0.171402,0 0.171402,-0.27688 v -2.8611 h 1.63491 v 2.90065 q 0,0.72516 -0.421912,1.19981 -0.408728,0.47466 -1.239368,0.47466 h -0.263695 q -1.766758,0 -1.766758,-1.83269 V 288.748 q 0,-0.81745 0.421913,-1.29211 0.435097,-0.48783 1.33166,-0.48783 h 0.27688 q 0.843825,0 1.252552,0.42191 0.408728,0.42191 0.408728,1.17344 v 2.5974 h -1.63491 v -2.54466 q 0,-0.25051 -0.171402,-0.25051 -0.171402,0 -0.171402,0.25051 z"
         style="font-style:normal;font-variant:normal;font-weight:normal;font-stretch:extra-condensed;font-size:13.18475914px;font-family:'Druk Cond';-inkscape-font-specification:'Druk Cond,  weight=960 Extra-Condensed';font-variant-ligatures:normal;font-variant-caps:normal;font-variant-numeric:normal;font-feature-settings:normal;text-align:start;writing-mode:lr-tb;text-anchor:start;fill:#dd0000;fill-opacity:0.94117647;stroke-width:0.28253055"
         id="path886"
         inkscape:connector-curvature="0" />
      <path
         d="m 55.776901,296.86981 v -9.80946 h 1.674465 v 3.8104 h 0.355988 v -3.8104 h 1.66128 v 9.80946 h -1.66128 v -4.27186 h -0.355988 v 4.27186 z"
         style="font-style:normal;font-variant:normal;font-weight:normal;font-stretch:extra-condensed;font-size:13.18475914px;font-family:'Druk Cond';-inkscape-font-specification:'Druk Cond,  weight=960 Extra-Condensed';font-variant-ligatures:normal;font-variant-caps:normal;font-variant-numeric:normal;font-feature-settings:normal;text-align:start;writing-mode:lr-tb;text-anchor:start;fill:#dd0000;fill-opacity:0.94117647;stroke-width:0.28253055"
         id="path888"
         inkscape:connector-curvature="0" />
      <path
         d="m 61.604555,293.66592 -0.197772,-3.73129 -0.197771,3.73129 z m 0.171402,3.20389 -0.09229,-1.76676 h -0.566944 l -0.09229,1.76676 h -1.437138 l 0.817455,-9.80946 h 2.109561 l 0.883379,9.80946 z"
         style="font-style:normal;font-variant:normal;font-weight:normal;font-stretch:extra-condensed;font-size:13.18475914px;font-family:'Druk Cond';-inkscape-font-specification:'Druk Cond,  weight=960 Extra-Condensed';font-variant-ligatures:normal;font-variant-caps:normal;font-variant-numeric:normal;font-feature-settings:normal;text-align:start;writing-mode:lr-tb;text-anchor:start;fill:#dd0000;fill-opacity:0.94117647;stroke-width:0.28253055"
         id="path890"
         inkscape:connector-curvature="0" />
      <path
         d="m 67.27397,288.90622 v 6.15728 q 0,0.90975 -0.474651,1.41077 -0.461467,0.48784 -1.292107,0.48784 h -0.27688 q -0.870194,0 -1.33166,-0.48784 -0.448282,-0.50102 -0.448282,-1.41077 v -6.15728 q 0,-1.93816 1.779942,-1.93816 h 0.263696 q 1.779942,0 1.779942,1.93816 z m -1.714019,6.30231 v -6.4869 q 0,-0.29006 -0.197771,-0.29006 -0.184587,0 -0.184587,0.29006 v 6.4869 q 0,0.2637 0.184587,0.2637 0.197771,0 0.197771,-0.2637 z"
         style="font-style:normal;font-variant:normal;font-weight:normal;font-stretch:extra-condensed;font-size:13.18475914px;font-family:'Druk Cond';-inkscape-font-specification:'Druk Cond,  weight=960 Extra-Condensed';font-variant-ligatures:normal;font-variant-caps:normal;font-variant-numeric:normal;font-feature-settings:normal;text-align:start;writing-mode:lr-tb;text-anchor:start;fill:#dd0000;fill-opacity:0.94117647;stroke-width:0.28253055"
         id="path892"
         inkscape:connector-curvature="0" />
      <path
         d="m 69.528561,296.96211 h -0.382358 q -1.63491,0 -1.63491,-1.51625 v -2.57103 h 1.63491 v 2.45237 q 0,0.26369 0.171402,0.26369 0.184587,0 0.184587,-0.27688 v -1.91179 q 0,-0.25051 -0.05274,-0.38236 -0.05274,-0.13185 -0.237326,-0.29006 l -0.857009,-0.73835 q -0.804271,-0.67242 -0.804271,-1.75357 v -1.74039 q 0,-1.52943 1.674465,-1.52943 h 0.382358 q 1.582171,0 1.582171,1.39758 v 2.1623 H 69.5813 v -2.08319 q 0,-0.21096 -0.171402,-0.21096 -0.171402,0 -0.171402,0.21096 v 1.67447 q 0,0.30324 0.263696,0.55376 l 0.843824,0.73834 q 0.514206,0.42191 0.711977,0.83064 0.197772,0.39554 0.197772,1.02841 v 1.95135 q 0,1.74039 -1.727204,1.74039 z"
         style="font-style:normal;font-variant:normal;font-weight:normal;font-stretch:extra-condensed;font-size:13.18475914px;font-family:'Druk Cond';-inkscape-font-specification:'Druk Cond,  weight=960 Extra-Condensed';font-variant-ligatures:normal;font-variant-caps:normal;font-variant-numeric:normal;font-feature-settings:normal;text-align:start;writing-mode:lr-tb;text-anchor:start;fill:#dd0000;fill-opacity:0.94117647;stroke-width:0.28253055"
         id="path894"
         inkscape:connector-curvature="0" />
    </g>
    <g
       style="font-style:normal;font-variant:normal;font-weight:500;font-stretch:normal;font-size:40px;line-height:1.25;font-family:'Druk Text Web';-inkscape-font-specification:'Druk Text Web, Medium';font-variant-ligatures:normal;font-variant-caps:normal;font-variant-numeric:normal;text-align:start;letter-spacing:0px;word-spacing:0px;writing-mode:lr-tb;text-anchor:start;fill:#000000;fill-opacity:1;stroke:none"
       id="flowRoot816" />
  </g>
</svg>
