<?xml version="1.0" encoding="UTF-8" standalone="no"?>
<!-- Created with Inkscape (http://www.inkscape.org/) -->

<svg
   xmlns:dc="http://purl.org/dc/elements/1.1/"
   xmlns:cc="http://creativecommons.org/ns#"
   xmlns:rdf="http://www.w3.org/1999/02/22-rdf-syntax-ns#"
   xmlns:svg="http://www.w3.org/2000/svg"
   xmlns="http://www.w3.org/2000/svg"
   xmlns:sodipodi="http://sodipodi.sourceforge.net/DTD/sodipodi-0.dtd"
   xmlns:inkscape="http://www.inkscape.org/namespaces/inkscape"
   width="1338mm"
   height="107.52707mm"
   viewBox="0 0 1338 107.52707"
   version="1.1"
   id="svg8"
   inkscape:version="0.92.5 (2060ec1f9f, 2020-04-08)"
   sodipodi:docname="longdcc.svg">
  <defs
     id="defs2" />
  <sodipodi:namedview
     id="base"
     pagecolor="#ffffff"
     bordercolor="#666666"
     borderopacity="1.0"
     inkscape:pageopacity="0.0"
     inkscape:pageshadow="2"
     inkscape:zoom="0.26"
     inkscape:cx="3522.7958"
     inkscape:cy="219.06587"
     inkscape:document-units="mm"
     inkscape:current-layer="layer1"
     showgrid="false"
     fit-margin-top="0"
     fit-margin-left="0"
     fit-margin-right="0"
     fit-margin-bottom="0"
     inkscape:window-width="1920"
     inkscape:window-height="1016"
     inkscape:window-x="0"
     inkscape:window-y="27"
     inkscape:window-maximized="1" />
  <metadata
     id="metadata5">
    <rdf:RDF>
      <cc:Work
         rdf:about="">
        <dc:format>image/svg+xml</dc:format>
        <dc:type
           rdf:resource="http://purl.org/dc/dcmitype/StillImage" />
        <dc:title></dc:title>
      </cc:Work>
    </rdf:RDF>
  </metadata>
  <g
     inkscape:label="Layer 1"
     inkscape:groupmode="layer"
     id="layer1"
     transform="translate(116.32244,-268.39794)">
    <text
       xml:space="preserve"
       style="font-style:normal;font-variant:normal;font-weight:500;font-stretch:normal;font-size:10.58333302px;line-height:1.25;font-family:'Druk Text Web';-inkscape-font-specification:'Druk Text Web, Medium';font-variant-ligatures:normal;font-variant-caps:normal;font-variant-numeric:normal;text-align:start;letter-spacing:0px;word-spacing:0px;writing-mode:lr-tb;text-anchor:start;fill:#dd0000;fill-opacity:1;stroke:none;stroke-width:0.26458332"
       x="28.726189"
       y="112.54762"
       id="text817"><tspan
         sodipodi:role="line"
         id="tspan815"
         x="28.726189"
         y="122.3372"
         style="font-style:normal;font-variant:normal;font-weight:500;font-stretch:normal;font-size:12.69999981px;font-family:'Druk Text Web';-inkscape-font-specification:'Druk Text Web, Medium';font-variant-ligatures:normal;font-variant-caps:normal;font-variant-numeric:normal;font-feature-settings:normal;text-align:start;writing-mode:lr-tb;text-anchor:start;fill:#dd0000;fill-opacity:1;stroke-width:0.26458332" /></text>
    <path
       id="path871"
       d="m 7.7671381,274.58989 c 18.2562499,0 27.2520899,7.9375 27.2520899,26.98755 v 44.45012 c 0,19.05 -9.26042,26.9875 -26.7229199,26.9875 H -32.978692 v -98.42517 z m -7.67291002,77.2585 c 4.76250002,0 6.35000002,-2.11667 6.35000002,-8.20208 v -40.48136 c 0,-5.55628 -1.5875,-7.93754 -6.35000002,-7.93754 H -4.9328619 v 56.3564 H 0.09422808 Z M 95.608808,297.60867 h -25.13542 v 13.22924 h 21.69584 v 23.2834 h -21.69584 v 15.875 h 25.92917 v 23.28333 h -52.65208 v -98.68975 h 51.85833 z m 59.266672,-23.01878 v 23.01878 h -24.60625 v 13.22924 h 20.90208 v 23.2834 h -20.90208 v 39.15833 h -26.72292 v -98.68975 z m 6.61458,72.496 v -72.496 h 27.51667 v 68.26267 c 0,4.7625 1.5875,7.40833 5.82083,7.40833 4.23333,0 5.82083,-2.64583 5.82083,-7.40833 v -68.26267 h 26.9875 v 72.496 c 0,15.34583 -10.05416,27.78125 -30.95625,27.78125 h -4.49791 c -22.48959,0 -30.69167,-12.17083 -30.69167,-27.78125 z m 118.00417,-19.31458 c -0.52917,-7.40834 -0.52917,-10.84795 -0.52917,-19.31466 v -33.86676 h 22.48958 v 98.42517 h -23.8125 l -14.55208,-41.53959 c -2.11667,-5.82083 -3.70417,-11.64167 -4.7625,-15.87503 0.26458,4.76253 0.52917,11.11253 0.52917,19.31462 v 37.83541 h -22.75417 v -98.16058 h 26.45833 l 11.64167,35.98344 c 2.91042,7.67296 4.23333,12.96464 5.29167,17.19798 z m 71.96666,-53.18142 c 18.25625,0 27.25209,7.9375 27.25209,26.98755 v 44.45012 c 0,19.05 -9.26042,26.9875 -26.72292,26.9875 h -41.275 v -98.42517 z m -7.40833,77.2585 c 4.7625,0 6.35,-2.11667 6.35,-8.20208 v -40.48136 c 0,-5.55628 -1.5875,-7.93754 -6.35,-7.93754 h -5.02708 v 56.3564 h 5.02708 z M 5.3858881,456.35881 V 441.54214 H 32.108808 v 16.66875 c 0,14.55209 -7.67292,27.51667 -29.8979199,27.51667 h -4.7625 c -23.0187471,0 -31.4854131,-11.1125 -31.4854131,-30.69167 v -40.74583 c 0,-18.52083 7.9375,-30.1625 31.2208331,-30.1625 h 4.7625 c 21.4312499,0 29.8979199,10.05417 29.8979199,26.45833 v 13.75834 H 5.3858881 v -11.90625 c 0,-3.96875 -1.32291,-6.61459 -5.55625002,-6.61459 -4.23332998,0 -5.29165998,2.64584 -5.29165998,6.61459 v 43.92083 c 0,4.7625 1.05833,7.14375 5.29165998,7.14375 4.23334002,0 5.55625002,-2.64583 5.55625002,-7.14375 z m 62.4416699,3.43958 h 20.90208 v 24.60625 h -48.68333 v -98.68958 h 28.04583 v 74.08333 z m 27.51667,24.34167 v -98.425 h 28.045832 v 98.425 z m 71.702082,0 -7.9375,-35.98333 c -2.64583,-12.17084 -4.23333,-21.16667 -5.29167,-27.78125 0.26459,7.14375 0.52917,16.40416 0.52917,29.10416 v 34.66042 h -21.96042 v -98.425 h 31.48542 l 5.82083,32.54375 c 1.5875,8.46667 2.64584,14.02292 2.91042,17.99167 0.52917,-3.70417 1.32292,-9.26042 2.91042,-17.99167 l 6.08541,-32.54375 h 30.69167 v 98.425 h -22.75417 v -34.39583 c 0,-12.7 0.26459,-21.69584 0.52917,-29.10417 -1.32292,6.61458 -2.91042,15.61042 -5.55625,27.78125 l -7.9375,35.98333 h -9.525 z m 75.67083,-12.7 -1.5875,12.96458 h -23.8125 l 15.34584,-98.425 h 36.5125 l 16.93333,98.425 h -26.45833 l -1.85209,-12.96458 z m 12.17084,-20.37292 -1.85209,-13.22916 c -1.32291,-10.05417 -2.11666,-17.99167 -2.64583,-24.34167 -0.52917,6.61458 -1.32292,14.55208 -2.91042,24.34167 l -1.85208,13.22916 z m 28.31041,-42.8625 v -22.48958 h 57.41459 v 22.48958 h -15.61042 v 76.2 h -26.45833 v -76.2 z m 115.62292,0.52917 h -25.13542 v 13.22917 h 21.69584 v 23.28333 h -21.69584 v 15.875 h 25.92917 v 23.28333 h -52.65208 v -98.68958 h 51.85833 z M 5.3858881,567.48381 V 552.66714 H 32.108808 v 16.66875 c 0,14.55209 -7.67292,27.51667 -29.8979199,27.51667 h -4.7625 c -23.0187471,0 -31.4854131,-11.1125 -31.4854131,-30.69167 v -40.74583 c 0,-18.52083 7.9375,-30.1625 31.2208331,-30.1625 h 4.7625 c 21.4312499,0 29.8979199,10.05417 29.8979199,26.45833 v 13.75834 H 5.3858881 v -11.90625 c 0,-3.96875 -1.32291,-6.61459 -5.55625002,-6.61459 -4.23332998,0 -5.29165998,2.64584 -5.29165998,6.61459 v 43.92083 c 0,4.7625 1.05833,7.14375 5.29165998,7.14375 4.23334002,0 5.55625002,-2.64583 5.55625002,-7.14375 z M 68.092138,496.84006 v 33.60208 h 11.37709 v -33.60208 h 28.045832 v 98.425 H 79.469228 v -37.57083 h -11.37709 v 37.83541 h -28.04583 v -98.68958 z m 69.585422,85.725 -1.5875,12.96458 h -23.8125 l 15.08125,-98.68958 h 36.5125 l 16.93333,98.425 h -26.45833 l -1.85208,-12.96458 h -14.81667 z m 12.17083,-20.37292 -1.85208,-13.22916 c -1.32292,-10.05417 -2.11667,-17.99167 -2.64583,-24.34167 -0.52917,6.61458 -1.5875,14.55208 -2.91042,24.34167 l -1.85208,13.22916 z m 70.11459,34.66042 h -4.7625 c -22.75417,0 -32.01459,-12.43542 -32.01459,-29.63333 v -42.06875 c 0,-18.52084 9.26042,-29.63334 32.01459,-29.63334 h 4.7625 c 21.96041,0 32.01458,11.1125 32.01458,29.63334 v 41.80416 c 0,17.72709 -10.31875,29.89792 -32.01458,29.89792 z m -2.38125,-78.58125 c -4.49792,0 -5.82084,2.64583 -5.82084,7.40833 v 41.01042 c 0,4.7625 1.5875,7.14375 5.82084,7.14375 3.96875,0 5.82083,-2.38125 5.82083,-7.14375 v -41.01042 c 0.26458,-4.49791 -1.32292,-7.40833 -5.82083,-7.40833 z m 40.21666,54.23958 v -11.64166 h 25.92917 v 8.99583 c 0,3.70417 1.5875,5.82083 5.82083,5.82083 3.96875,0 5.82084,-2.11666 5.82084,-6.61458 v -0.79375 c 0,-5.82083 -2.64584,-7.9375 -7.67292,-11.1125 l -13.22917,-8.46667 c -10.05416,-6.35 -15.61041,-13.75833 -15.61041,-26.45833 v -2.64583 c 0,-15.34584 9.26041,-24.34167 30.69166,-24.34167 h 3.70417 c 23.01875,0 29.63333,9.26042 29.63333,22.48958 v 8.46667 h -25.92916 v -5.82083 c 0,-3.96875 -1.85209,-5.82084 -5.29167,-5.82084 -3.96875,0 -5.82083,1.85209 -5.82083,5.55625 v 0.26459 c 0,4.23333 2.38125,6.08541 7.14375,9.26041 l 13.22916,8.46667 c 11.64167,7.40833 17.99167,14.2875 17.99167,28.575 v 2.91042 c 0,15.08125 -8.99583,27.51666 -32.27917,27.51666 h -3.70416 c -23.01875,-0.26458 -30.42709,-10.31875 -30.42709,-24.60625 z m -347.397915,-229.92292 -3.439584,30.42709 h -15.345831 l 3.43958,-30.42709 h -11.37708 l 1.5875,-12.96458 h 11.37708 l 1.5875,-16.13963 h -11.37708 l 1.32291,-12.96466 h 11.37709 l 3.174998,-25.92921 h 15.345833 l -2.910416,25.92921 h 10.31875 l 2.910416,-25.92921 h 15.610417 l -3.175,25.92921 h 11.377083 l -1.322916,12.96466 h -11.641667 l -1.852083,16.13963 h 11.641666 l -1.322916,12.96458 h -11.641667 l -3.704167,30.42709 h -15.345833 l 3.439583,-30.42709 z m 3.439583,-29.10421 -1.852083,16.13963 h 10.054166 l 1.852084,-16.13963 z"
       class="st0"
       inkscape:connector-curvature="0"
       style="fill:#dd0000;stroke-width:2.64583325">
  </path>
    <flowRoot
       xml:space="preserve"
       id="flowRoot883"
       style="font-style:normal;font-variant:normal;font-weight:500;font-stretch:normal;font-size:40px;line-height:1.25;font-family:'Druk Text Web';-inkscape-font-specification:'Druk Text Web, Medium';font-variant-ligatures:normal;font-variant-caps:normal;font-variant-numeric:normal;text-align:start;letter-spacing:0px;word-spacing:0px;writing-mode:lr-tb;text-anchor:start;fill:#000000;fill-opacity:1;stroke:none"
       transform="matrix(0.26458333,0,0,0.26458333,-116.32244,53.397958)"><flowRegion
         id="flowRegion885"><rect
           id="rect887"
           width="2189.3076"
           height="443.30768"
           x="-57.692307"
           y="-61.76923" /></flowRegion><flowPara
         id="flowPara889"></flowPara><flowPara
         id="flowPara891" /></flowRoot>    <path
       id="path871-1"
       d="m 446.44643,163.4647 c 18.25625,0 27.25209,7.9375 27.25209,26.98751 v 44.45004 c 0,19.05001 -9.26042,26.98751 -26.72292,26.98751 h -41.275 V 163.4647 Z m -7.67291,77.25838 c 4.7625,0 6.35,-2.11667 6.35,-8.20208 v -40.48129 c 0,-5.55625 -1.5875,-7.9375 -6.35,-7.9375 h -5.02709 v 56.35629 h 5.02709 z m 95.51458,-54.23962 h -25.13542 v 13.22917 h 21.69584 v 23.28336 H 509.15268 V 238.871 h 25.92917 v 23.28334 H 482.42977 V 163.4647 h 51.85833 z m 59.26667,-23.01876 v 23.01876 h -24.60625 v 13.22917 h 20.90208 v 23.28336 h -20.90208 v 39.15835 H 542.2256 V 163.4647 Z m 6.61458,72.49588 V 163.4647 h 27.51667 v 68.26255 c 0,4.7625 1.5875,7.40833 5.82083,7.40833 4.23333,0 5.82083,-2.64583 5.82083,-7.40833 V 163.4647 h 26.9875 v 72.49588 c 0,15.34584 -10.05416,27.78126 -30.95625,27.78126 h -4.49791 c -22.48959,0 -30.69167,-12.17083 -30.69167,-27.78126 z m 118.00417,-19.31459 c -0.52917,-7.40835 -0.52917,-10.84794 -0.52917,-19.31461 V 163.4647 h 22.48958 v 98.42506 h -23.8125 l -14.55208,-41.53961 c -2.11667,-5.82084 -3.70417,-11.64167 -4.7625,-15.87501 0.26458,4.7625 0.52917,11.11251 0.52917,19.3146 v 37.83543 H 674.78185 V 163.4647 h 26.45833 l 11.64167,35.98335 c 2.91042,7.67292 4.23333,12.96459 5.29167,17.19794 z m 71.96666,-53.18129 c 18.25625,0 27.25209,7.9375 27.25209,26.98751 v 44.45004 c 0,19.05001 -9.26042,26.98751 -26.72292,26.98751 h -41.275 V 163.4647 Z m -7.40833,77.25838 c 4.7625,0 6.35,-2.11667 6.35,-8.20208 v -40.48129 c 0,-5.55625 -1.5875,-7.9375 -6.35,-7.9375 h -5.02708 v 56.35629 h 5.02708 z M 444.06518,345.23367 V 330.417 h 26.72292 v 16.66875 c 0,14.55209 -7.67292,27.51667 -29.89792,27.51667 h -4.7625 c -23.01875,0 -31.48541,-11.1125 -31.48541,-30.69167 v -40.74587 c 0,-18.52093 7.9375,-30.16261 31.22083,-30.16261 h 4.7625 c 21.43125,0 29.89792,10.05417 29.89792,26.45842 v 13.7584 H 444.06518 V 301.3128 c 0,-3.96878 -1.32291,-6.61463 -5.55625,-6.61463 -4.23333,0 -5.29166,2.64585 -5.29166,6.61463 v 43.92087 c 0,4.7625 1.05833,7.14375 5.29166,7.14375 4.23334,0 5.55625,-2.64583 5.55625,-7.14375 z m 62.44167,3.43958 h 20.90208 V 373.2795 H 478.7256 v -98.68973 h 28.04583 v 74.08348 z m 27.51667,24.34167 v -98.42515 h 28.04583 v 98.42515 z m 71.70208,0 -7.9375,-35.98333 c -2.64583,-12.17084 -4.23333,-21.16667 -5.29167,-27.78125 0.26459,7.14375 0.52917,16.40416 0.52917,29.10416 v 34.66042 h -21.96042 v -98.42515 h 31.48542 l 5.82083,32.54389 c 1.5875,8.46668 2.64584,14.02293 2.91042,17.99168 0.52917,-3.70417 1.32292,-9.26042 2.91042,-17.99168 l 6.08541,-32.54389 h 30.69167 v 98.42515 h -22.75417 v -34.39583 c 0,-12.7 0.26459,-21.69584 0.52917,-29.10417 -1.32292,6.61458 -2.91042,15.61042 -5.55625,27.78125 l -7.9375,35.98333 h -9.525 z m 75.67083,-12.7 -1.5875,12.96458 h -23.8125 l 15.34584,-98.42515 h 36.5125 l 16.93333,98.42515 h -26.45833 l -1.85209,-12.96458 z m 12.17084,-20.37292 -1.85209,-13.22916 c -1.32291,-10.05417 -2.11666,-17.99167 -2.64583,-24.34171 -0.52917,6.61462 -1.32292,14.55212 -2.91042,24.34171 l -1.85208,13.22916 z m 28.31041,-42.86257 v -22.48966 h 57.41459 v 22.48966 h -15.61042 v 76.20007 h -26.45833 v -76.20007 z m 115.62292,0.52917 h -25.13542 v 13.22924 h 21.69584 v 23.28333 h -21.69584 v 15.875 h 25.92917 V 373.2795 H 785.64227 V 274.58977 H 837.5006 Z M 444.06518,456.35867 V 441.542 h 26.72292 v 16.66875 c 0,14.55208 -7.67292,27.51667 -29.89792,27.51667 h -4.7625 c -23.01875,0 -31.48541,-11.1125 -31.48541,-30.69167 v -40.74583 c 0,-18.52083 7.9375,-30.1625 31.22083,-30.1625 h 4.7625 c 21.43125,0 29.89792,10.05417 29.89792,26.45833 v 13.75834 h -26.45834 v -11.90625 c 0,-3.96875 -1.32291,-6.61459 -5.55625,-6.61459 -4.23333,0 -5.29166,2.64584 -5.29166,6.61459 v 43.92083 c 0,4.7625 1.05833,7.14375 5.29166,7.14375 4.23334,0 5.55625,-2.64584 5.55625,-7.14375 z m 62.70625,-70.64375 V 419.317 h 11.37709 v -33.60208 h 28.04583 v 98.425 H 518.14852 V 446.56908 H 506.77143 V 484.4045 H 478.7256 v -98.68958 z m 69.58542,85.725 -1.5875,12.96458 h -23.8125 l 15.08125,-98.68958 h 36.5125 l 16.93333,98.425 H 593.0256 l -1.85208,-12.96459 H 576.35685 Z M 588.52768,451.067 586.6756,437.83783 c -1.32292,-10.05416 -2.11667,-17.99166 -2.64583,-24.34166 -0.52917,6.61458 -1.5875,14.55208 -2.91042,24.34166 l -1.85208,13.22917 z m 70.11459,34.66042 h -4.7625 c -22.75417,0 -32.01459,-12.43542 -32.01459,-29.63334 v -42.06874 c 0,-18.52084 9.26042,-29.63334 32.01459,-29.63334 h 4.7625 c 21.96041,0 32.01458,11.1125 32.01458,29.63334 v 41.80416 c 0,17.72708 -10.31875,29.89792 -32.01458,29.89792 z m -2.38125,-78.58125 c -4.49792,0 -5.82084,2.64583 -5.82084,7.40833 v 41.01042 c 0,4.7625 1.5875,7.14375 5.82084,7.14375 3.96875,0 5.82083,-2.38125 5.82083,-7.14375 V 414.5545 c 0.26458,-4.49791 -1.32292,-7.40833 -5.82083,-7.40833 z m 40.21666,54.23958 v -11.64167 h 25.92917 v 8.99584 c 0,3.70416 1.5875,5.82083 5.82083,5.82083 3.96875,0 5.82084,-2.11667 5.82084,-6.61458 v -0.79375 c 0,-5.82084 -2.64584,-7.9375 -7.67292,-11.1125 l -13.22917,-8.46667 c -10.05416,-6.35 -15.61041,-13.75833 -15.61041,-26.45833 v -2.64583 c 0,-15.34584 9.26041,-24.34167 30.69166,-24.34167 h 3.70417 c 23.01875,0 29.63333,9.26042 29.63333,22.48958 v 8.46667 h -25.92916 v -5.82083 c 0,-3.96875 -1.85209,-5.82084 -5.29167,-5.82084 -3.96875,0 -5.82083,1.85209 -5.82083,5.55625 v 0.26459 c 0,4.23333 2.38125,6.08541 7.14375,9.26041 l 13.22916,8.46667 c 11.64167,7.40833 17.99167,14.2875 17.99167,28.575 v 2.91041 c 0,15.08125 -8.99583,27.51667 -32.27917,27.51667 h -3.70416 c -23.01875,-0.26458 -30.42709,-10.31875 -30.42709,-24.60625 z m -347.39792,-229.92309 -3.43958,30.4271 h -15.34583 l 3.43958,-30.4271 h -11.37708 l 1.5875,-12.96459 h 11.37708 l 1.5875,-16.13961 h -11.37708 l 1.32291,-12.96458 h 11.37709 l 3.175,-25.92918 h 15.34583 l -2.91042,25.92918 h 10.31876 l 2.91041,-25.92918 h 15.61042 l -3.175,25.92918 h 11.37708 l -1.32291,12.96458 h -11.64167 l -1.85208,16.13961 h 11.64166 l -1.32291,12.96459 h -11.64167 l -3.70417,30.4271 h -15.34583 l 3.43958,-30.4271 z m 3.43959,-29.1042 -1.85209,16.13961 h 10.05417 l 1.85209,-16.13961 z"
       class="st0"
       inkscape:connector-curvature="0"
       style="fill:#dd0000;stroke-width:2.64583325" />
    <path
       id="path871-1-7"
       d="m 904.44025,52.288998 c 18.25625,0 27.25209,7.937494 27.25209,26.987485 v 44.449797 c 0,19.05001 -9.26042,26.98752 -26.72292,26.98752 h -41.275 V 52.288998 Z m -7.67291,77.258112 c 4.7625,0 6.35,-2.11667 6.35,-8.20207 V 80.86398 c 0,-5.556247 -1.5875,-7.937494 -6.35,-7.937494 h -5.02709 v 56.356044 h 5.02709 z M 992.28192,75.307733 H 967.1465 v 13.229139 h 21.69584 V 111.82009 H 967.1465 v 15.87494 h 25.92917 v 23.28335 H 940.42359 V 52.288998 h 51.85833 z m 59.26838,-23.018735 v 23.018735 h -24.6065 v 13.229139 h 20.9023 v 23.283218 h -20.9023 v 39.15829 h -26.7244 V 52.288998 Z m 6.6146,72.495612 V 52.288998 h 27.5166 v 68.262292 c 0,4.76249 1.5875,7.40832 5.8209,7.40832 4.2333,0 5.8208,-2.64583 5.8208,-7.40832 V 52.288998 h 26.9875 v 72.495612 c 0,15.34584 -10.0542,27.78127 -30.9562,27.78127 h -4.498 c -22.4895,0 -30.6916,-12.17084 -30.6916,-27.78127 z m 118.0041,-19.31449 c -0.5291,-7.408298 -0.5291,-10.847861 -0.5291,-19.314483 V 52.288998 h 22.4896 V 150.7138 h -23.8125 l -14.5521,-41.53954 c -2.1167,-5.8208 -3.7042,-11.641595 -4.7625,-15.874915 0.2646,4.762477 0.5291,11.112435 0.5291,19.314495 v 37.83537 h -22.7541 V 52.288998 h 26.4583 l 11.6417,35.983297 c 2.9104,7.672876 4.2333,12.964505 5.2916,17.197825 z m 71.9667,-53.181122 c 18.2563,0 27.2521,7.937494 27.2521,26.987485 v 44.449797 c 0,19.05001 -9.2604,26.98752 -26.7229,26.98752 h -41.275 V 52.288998 Z m -7.4083,77.258112 c 4.7625,0 6.35,-2.11667 6.35,-8.20207 V 80.86398 c 0,-5.556247 -1.5875,-7.937494 -6.35,-7.937494 h -5.0271 v 56.356044 h 5.0271 z M 902.059,234.05761 v -14.81669 h 26.72292 v 16.66877 c 0,14.55209 -7.67292,27.51668 -29.89792,27.51668 h -4.7625 c -23.01875,0 -31.48541,-11.11251 -31.48541,-30.69169 v -40.74587 c 0,-18.52083 7.9375,-30.16251 31.22083,-30.16251 h 4.7625 c 21.43125,0 29.89792,10.05418 29.89792,26.45834 V 202.043 H 902.059 v -11.90627 c 0,-3.96875 -1.32291,-6.61459 -5.55625,-6.61459 -4.23333,0 -5.29166,2.64584 -5.29166,6.61459 v 43.92088 c 0,4.7625 1.05833,7.14375 5.29166,7.14375 4.23334,0 5.55625,-2.64583 5.55625,-7.14375 z m 62.44167,3.43958 h 20.90208 v 24.60626 H 936.71942 V 163.4138 h 28.04583 v 74.08339 z m 27.51667,24.34168 V 163.4138 h 28.04696 v 98.42507 z m 71.70376,0 -7.9375,-35.98336 c -2.6458,-12.17085 -4.2333,-21.16668 -5.2916,-27.78127 0.2645,7.14376 0.5291,16.40417 0.5291,29.10419 v 34.66044 h -21.9605 V 163.4138 h 31.4855 l 5.8209,32.54376 c 1.5875,8.46669 2.6458,14.02294 2.9104,17.99169 0.5291,-3.70417 1.3229,-9.26042 2.9104,-17.99169 l 6.0854,-32.54376 h 30.6917 v 98.42507 h -22.7542 v -34.39585 c 0,-12.70002 0.2646,-21.69586 0.5292,-29.1042 -1.3229,6.61459 -2.9104,15.61043 -5.5563,27.78127 l -7.9375,35.98336 h -9.525 z m 75.6709,-12.70001 -1.5875,12.96459 h -23.8125 l 15.3458,-98.42507 h 36.5125 l 16.9333,98.42507 h -26.4583 l -1.8521,-12.96459 z m 12.1708,-20.37293 -1.8521,-13.22918 c -1.3229,-10.05417 -2.1167,-17.99168 -2.6458,-24.34169 -0.5292,6.61459 -1.3229,14.5521 -2.9104,24.34169 l -1.8521,13.22918 z m 28.3104,-42.86254 V 163.4138 h 57.4146 v 22.48959 h -15.6104 v 76.20006 h -26.4584 v -76.20006 z m 115.6229,0.52917 h -25.1354 v 13.22918 h 21.6958 v 23.28335 h -21.6958 v 15.87502 h 25.9292 v 23.28334 h -52.6521 V 163.4138 h 51.8583 z M 902.059,345.18284 v -14.81667 h 26.72292 v 16.66875 c 0,14.55208 -7.67292,27.51667 -29.89792,27.51667 h -4.7625 c -23.01875,0 -31.48541,-11.1125 -31.48541,-30.69167 v -40.74594 c 0,-18.52093 7.9375,-30.1626 31.22083,-30.1626 h 4.7625 c 21.43125,0 29.89792,10.05417 29.89792,26.45841 v 13.75842 H 902.059 v -11.90632 c 0,-3.96877 -1.32291,-6.61463 -5.55625,-6.61463 -4.23333,0 -5.29166,2.64586 -5.29166,6.61463 v 43.92095 c 0,4.7625 1.05833,7.14375 5.29166,7.14375 4.23334,0 5.55625,-2.64584 5.55625,-7.14375 z m 62.70625,-70.64396 v 33.60221 h 11.37709 v -33.60221 h 28.04606 v 98.42521 h -28.04606 v -37.57084 h -11.37709 v 37.83542 h -28.04583 v -98.68979 z m 69.58715,85.72521 -1.5875,12.96458 h -23.8138 l 15.0822,-98.68979 h 36.5128 l 16.9334,98.42521 h -26.4584 l -1.8521,-12.96459 h -14.8166 z m 12.1708,-20.37292 -1.8521,-13.22917 c -1.3229,-10.05419 -2.1166,-17.99174 -2.6458,-24.34177 -0.5292,6.61461 -1.5875,14.55215 -2.9104,24.34177 l -1.8521,13.22917 z m 70.1146,34.66042 h -4.7625 c -22.7542,0 -32.0146,-12.43542 -32.0146,-29.63334 V 302.8494 c 0,-18.52094 9.2604,-29.63344 32.0146,-29.63344 h 4.7625 c 21.9604,0 32.0146,11.1125 32.0146,29.63344 v 41.80427 c 0,17.72708 -10.3188,29.89792 -32.0146,29.89792 z m -2.3813,-78.5814 c -4.4979,0 -5.8208,2.64585 -5.8208,7.40837 v 41.01053 c 0,4.7625 1.5875,7.14375 5.8208,7.14375 3.9688,0 5.8209,-2.38125 5.8209,-7.14375 v -41.01053 c 0.2646,-4.49793 -1.3229,-7.40837 -5.8209,-7.40837 z m 40.2167,54.23973 v -11.64167 h 25.9292 v 8.99584 c 0,3.70416 1.5875,5.82083 5.8208,5.82083 3.9688,0 5.8208,-2.11667 5.8208,-6.61458 v -0.79375 c 0,-5.82084 -2.6458,-7.9375 -7.6729,-11.1125 l -13.2291,-8.46667 c -10.0542,-6.35002 -15.6105,-13.75838 -15.6105,-26.45846 v -2.64584 c 0,-15.34591 9.2605,-24.34174 30.6917,-24.34174 h 3.7042 c 23.0187,0 29.6333,9.26042 29.6333,22.48964 v 8.46672 h -25.9292 v -5.82087 c 0,-3.96877 -1.852,-5.82087 -5.2916,-5.82087 -3.9688,0 -5.8209,1.8521 -5.8209,5.55628 v 0.26459 c 0,4.23336 2.3813,6.08545 7.1438,9.26047 l 13.2292,8.46671 c 11.6416,7.40837 17.9916,14.28754 17.9916,28.57504 v 2.91041 c 0,15.08125 -8.9958,27.51667 -32.2791,27.51667 h -3.7042 c -23.0188,-0.26458 -30.4271,-10.31875 -30.4271,-24.60625 z M 807.07358,120.2867 803.634,150.7138 h -15.34583 l 3.43958,-30.4271 h -11.37708 l 1.5875,-12.96451 h 11.37708 l 1.5875,-16.139493 h -11.37708 l 1.32291,-12.964554 h 11.37709 l 3.175,-25.929145 h 15.34583 l -2.91042,25.929145 h 10.31876 l 2.91041,-25.929145 h 15.61042 l -3.175,25.929145 h 11.37708 l -1.32291,12.964554 h -11.64167 l -1.85208,16.139493 h 11.64166 l -1.32291,12.96451 h -11.64167 l -3.70417,30.4271 h -15.34583 l 3.43958,-30.4271 z m 3.43959,-29.104003 -1.85209,16.139493 h 10.05417 l 1.85209,-16.139493 z"
       class="st0"
       inkscape:connector-curvature="0"
       style="fill:#dd0000;stroke-width:2.64583325" />
  </g>
  <style
     id="style869"
     type="text/css">
    .st0{fill:#DD0000;}
  </style>
</svg>
